<svg width="24" height="24" viewBox="0 0 24 24" fill="none" xmlns="http://www.w3.org/2000/svg">
<path fill-rule="evenodd" clip-rule="evenodd" d="M7.5001 11.4002C8.74271 11.4002 9.75005 10.4151 9.75005 9.20008C9.75005 7.98501 8.74271 7 7.5001 7C6.25749 7 5.25015 7.98501 5.25015 9.20008C5.25015 10.4151 6.25749 11.4002 7.5001 11.4002ZM7.5001 10.4001C8.17789 10.4001 8.72734 9.86284 8.72734 9.20008C8.72734 8.53731 8.17789 8.00004 7.5001 8.00004C6.82231 8.00004 6.27285 8.53731 6.27285 9.20008C6.27285 9.86284 6.82231 10.4001 7.5001 10.4001Z" fill="black"/>
<path d="M3 9.70029H5.24995V8.70026H3V9.70029Z" fill="black"/>
<path d="M18.75 16.3001H21V15.3001H18.75V16.3001Z" fill="black"/>
<path d="M20.6249 9.70029H11.6251V8.70026H20.6249V9.70029Z" fill="black"/>
<path fill-rule="evenodd" clip-rule="evenodd" d="M3 16.3001H11.9998V15.8296C12.016 17.031 13.0171 18 14.2495 18C15.4922 18 16.4995 17.015 16.4995 15.7999C16.4995 14.5849 15.4922 13.5998 14.2495 13.5998C13.0171 13.5998 12.016 14.5689 11.9998 15.7703V15.3001H3V16.3001ZM15.4768 15.7999C15.4768 16.4627 14.9273 17 14.2495 17C13.5718 17 13.0223 16.4627 13.0223 15.7999C13.0223 15.1372 13.5718 14.5999 14.2495 14.5999C14.9273 14.5999 15.4768 15.1372 15.4768 15.7999Z" fill="black"/>
</svg>
